<mxfile host="app.diagrams.net" agent="Mozilla/5.0 (Windows NT 10.0; Win64; x64; rv:130.0) Gecko/20100101 Firefox/130.0" version="24.7.15">
  <diagram name="Page-1" id="Khyg_C0OmY_P2ztcUPCE">
    <mxGraphModel dx="1050" dy="557" grid="1" gridSize="10" guides="1" tooltips="1" connect="1" arrows="1" fold="1" page="1" pageScale="1" pageWidth="827" pageHeight="1169" math="0" shadow="0">
      <root>
        <mxCell id="0" />
        <mxCell id="1" parent="0" />
        <mxCell id="jn_K5ucYfSR-Frp_HvuO-1" value="Client" style="shape=umlActor;verticalLabelPosition=bottom;verticalAlign=top;html=1;outlineConnect=0;" vertex="1" parent="1">
          <mxGeometry x="710" y="410" width="30" height="60" as="geometry" />
        </mxCell>
        <mxCell id="jn_K5ucYfSR-Frp_HvuO-2" value="&lt;div&gt;utilisateur&lt;/div&gt;&lt;div&gt;&lt;br&gt;&lt;/div&gt;" style="shape=umlActor;verticalLabelPosition=bottom;verticalAlign=top;html=1;outlineConnect=0;" vertex="1" parent="1">
          <mxGeometry x="710" y="220" width="30" height="60" as="geometry" />
        </mxCell>
        <mxCell id="jn_K5ucYfSR-Frp_HvuO-3" value="" style="endArrow=classic;html=1;rounded=0;exitX=0.5;exitY=0;exitDx=0;exitDy=0;exitPerimeter=0;" edge="1" parent="1" source="jn_K5ucYfSR-Frp_HvuO-1" target="jn_K5ucYfSR-Frp_HvuO-2">
          <mxGeometry width="50" height="50" relative="1" as="geometry">
            <mxPoint x="400" y="350" as="sourcePoint" />
            <mxPoint x="450" y="300" as="targetPoint" />
          </mxGeometry>
        </mxCell>
        <mxCell id="jn_K5ucYfSR-Frp_HvuO-4" value="&lt;div&gt;retirer&lt;/div&gt;" style="ellipse;whiteSpace=wrap;html=1;" vertex="1" parent="1">
          <mxGeometry x="380" y="170" width="120" height="50" as="geometry" />
        </mxCell>
        <mxCell id="jn_K5ucYfSR-Frp_HvuO-5" value="consulter" style="ellipse;whiteSpace=wrap;html=1;" vertex="1" parent="1">
          <mxGeometry x="430" y="260" width="120" height="50" as="geometry" />
        </mxCell>
        <mxCell id="jn_K5ucYfSR-Frp_HvuO-6" value="identifier" style="ellipse;whiteSpace=wrap;html=1;" vertex="1" parent="1">
          <mxGeometry x="230" y="220" width="120" height="50" as="geometry" />
        </mxCell>
        <mxCell id="jn_K5ucYfSR-Frp_HvuO-7" value="depot numeraire" style="ellipse;whiteSpace=wrap;html=1;" vertex="1" parent="1">
          <mxGeometry x="424" y="370" width="120" height="50" as="geometry" />
        </mxCell>
        <mxCell id="jn_K5ucYfSR-Frp_HvuO-8" value="depot cheque" style="ellipse;whiteSpace=wrap;html=1;" vertex="1" parent="1">
          <mxGeometry x="340" y="420" width="120" height="50" as="geometry" />
        </mxCell>
        <mxCell id="jn_K5ucYfSR-Frp_HvuO-9" value="" style="endArrow=classic;html=1;rounded=0;" edge="1" parent="1" source="jn_K5ucYfSR-Frp_HvuO-1" target="jn_K5ucYfSR-Frp_HvuO-7">
          <mxGeometry width="50" height="50" relative="1" as="geometry">
            <mxPoint x="400" y="350" as="sourcePoint" />
            <mxPoint x="450" y="300" as="targetPoint" />
          </mxGeometry>
        </mxCell>
        <mxCell id="jn_K5ucYfSR-Frp_HvuO-10" value="" style="endArrow=classic;html=1;rounded=0;" edge="1" parent="1" source="jn_K5ucYfSR-Frp_HvuO-1" target="jn_K5ucYfSR-Frp_HvuO-8">
          <mxGeometry width="50" height="50" relative="1" as="geometry">
            <mxPoint x="660" y="460" as="sourcePoint" />
            <mxPoint x="549" y="415" as="targetPoint" />
          </mxGeometry>
        </mxCell>
        <mxCell id="jn_K5ucYfSR-Frp_HvuO-11" value="" style="endArrow=classic;html=1;rounded=0;" edge="1" parent="1" source="jn_K5ucYfSR-Frp_HvuO-1" target="jn_K5ucYfSR-Frp_HvuO-5">
          <mxGeometry width="50" height="50" relative="1" as="geometry">
            <mxPoint x="710" y="440" as="sourcePoint" />
            <mxPoint x="450" y="300" as="targetPoint" />
          </mxGeometry>
        </mxCell>
        <mxCell id="jn_K5ucYfSR-Frp_HvuO-12" value="" style="endArrow=classic;html=1;rounded=0;" edge="1" parent="1" source="jn_K5ucYfSR-Frp_HvuO-2" target="jn_K5ucYfSR-Frp_HvuO-4">
          <mxGeometry width="50" height="50" relative="1" as="geometry">
            <mxPoint x="400" y="350" as="sourcePoint" />
            <mxPoint x="450" y="300" as="targetPoint" />
          </mxGeometry>
        </mxCell>
        <mxCell id="jn_K5ucYfSR-Frp_HvuO-13" value="&lt;div&gt;System id&lt;/div&gt;" style="shape=umlActor;verticalLabelPosition=bottom;verticalAlign=top;html=1;outlineConnect=0;" vertex="1" parent="1">
          <mxGeometry x="90" y="190" width="30" height="60" as="geometry" />
        </mxCell>
        <mxCell id="jn_K5ucYfSR-Frp_HvuO-14" value="convoyeur" style="shape=umlActor;verticalLabelPosition=bottom;verticalAlign=top;html=1;outlineConnect=0;" vertex="1" parent="1">
          <mxGeometry x="90" y="310" width="30" height="60" as="geometry" />
        </mxCell>
        <mxCell id="jn_K5ucYfSR-Frp_HvuO-15" value="technicien" style="shape=umlActor;verticalLabelPosition=bottom;verticalAlign=top;html=1;outlineConnect=0;" vertex="1" parent="1">
          <mxGeometry x="90" y="430" width="30" height="60" as="geometry" />
        </mxCell>
        <mxCell id="jn_K5ucYfSR-Frp_HvuO-16" value="recharger" style="ellipse;whiteSpace=wrap;html=1;" vertex="1" parent="1">
          <mxGeometry x="210" y="310" width="120" height="50" as="geometry" />
        </mxCell>
        <mxCell id="jn_K5ucYfSR-Frp_HvuO-17" value="maintenir le GAB" style="ellipse;whiteSpace=wrap;html=1;" vertex="1" parent="1">
          <mxGeometry x="230" y="480" width="120" height="50" as="geometry" />
        </mxCell>
        <mxCell id="jn_K5ucYfSR-Frp_HvuO-18" value="" style="endArrow=classic;html=1;rounded=0;" edge="1" parent="1" source="jn_K5ucYfSR-Frp_HvuO-5" target="jn_K5ucYfSR-Frp_HvuO-6">
          <mxGeometry width="50" height="50" relative="1" as="geometry">
            <mxPoint x="400" y="350" as="sourcePoint" />
            <mxPoint x="380" y="340" as="targetPoint" />
          </mxGeometry>
        </mxCell>
        <mxCell id="jn_K5ucYfSR-Frp_HvuO-19" value="&lt;div&gt;include&lt;/div&gt;" style="edgeLabel;html=1;align=center;verticalAlign=middle;resizable=0;points=[];" vertex="1" connectable="0" parent="jn_K5ucYfSR-Frp_HvuO-18">
          <mxGeometry x="0.2555" y="1" relative="1" as="geometry">
            <mxPoint as="offset" />
          </mxGeometry>
        </mxCell>
        <mxCell id="jn_K5ucYfSR-Frp_HvuO-20" value="" style="endArrow=classic;html=1;rounded=0;entryX=0.908;entryY=0.24;entryDx=0;entryDy=0;entryPerimeter=0;" edge="1" parent="1" source="jn_K5ucYfSR-Frp_HvuO-4" target="jn_K5ucYfSR-Frp_HvuO-6">
          <mxGeometry width="50" height="50" relative="1" as="geometry">
            <mxPoint x="446" y="284" as="sourcePoint" />
            <mxPoint x="354" y="266" as="targetPoint" />
          </mxGeometry>
        </mxCell>
        <mxCell id="jn_K5ucYfSR-Frp_HvuO-21" value="&lt;div&gt;include&lt;/div&gt;" style="edgeLabel;html=1;align=center;verticalAlign=middle;resizable=0;points=[];" vertex="1" connectable="0" parent="jn_K5ucYfSR-Frp_HvuO-20">
          <mxGeometry x="0.2555" y="1" relative="1" as="geometry">
            <mxPoint as="offset" />
          </mxGeometry>
        </mxCell>
        <mxCell id="jn_K5ucYfSR-Frp_HvuO-22" value="" style="endArrow=classic;html=1;rounded=0;exitX=0.3;exitY=0;exitDx=0;exitDy=0;exitPerimeter=0;" edge="1" parent="1" source="jn_K5ucYfSR-Frp_HvuO-7" target="jn_K5ucYfSR-Frp_HvuO-6">
          <mxGeometry width="50" height="50" relative="1" as="geometry">
            <mxPoint x="456" y="294" as="sourcePoint" />
            <mxPoint x="364" y="276" as="targetPoint" />
          </mxGeometry>
        </mxCell>
        <mxCell id="jn_K5ucYfSR-Frp_HvuO-23" value="&lt;div&gt;include&lt;/div&gt;" style="edgeLabel;html=1;align=center;verticalAlign=middle;resizable=0;points=[];" vertex="1" connectable="0" parent="jn_K5ucYfSR-Frp_HvuO-22">
          <mxGeometry x="0.2555" y="1" relative="1" as="geometry">
            <mxPoint as="offset" />
          </mxGeometry>
        </mxCell>
        <mxCell id="jn_K5ucYfSR-Frp_HvuO-24" value="" style="endArrow=classic;html=1;rounded=0;exitX=0.45;exitY=-0.02;exitDx=0;exitDy=0;exitPerimeter=0;entryX=0.658;entryY=0.96;entryDx=0;entryDy=0;entryPerimeter=0;" edge="1" parent="1" source="jn_K5ucYfSR-Frp_HvuO-8" target="jn_K5ucYfSR-Frp_HvuO-6">
          <mxGeometry width="50" height="50" relative="1" as="geometry">
            <mxPoint x="466" y="304" as="sourcePoint" />
            <mxPoint x="374" y="286" as="targetPoint" />
          </mxGeometry>
        </mxCell>
        <mxCell id="jn_K5ucYfSR-Frp_HvuO-25" value="&lt;div&gt;include&lt;/div&gt;" style="edgeLabel;html=1;align=center;verticalAlign=middle;resizable=0;points=[];" vertex="1" connectable="0" parent="jn_K5ucYfSR-Frp_HvuO-24">
          <mxGeometry x="0.2555" y="1" relative="1" as="geometry">
            <mxPoint as="offset" />
          </mxGeometry>
        </mxCell>
        <mxCell id="jn_K5ucYfSR-Frp_HvuO-26" value="" style="endArrow=classic;html=1;rounded=0;" edge="1" parent="1" source="jn_K5ucYfSR-Frp_HvuO-15" target="jn_K5ucYfSR-Frp_HvuO-17">
          <mxGeometry width="50" height="50" relative="1" as="geometry">
            <mxPoint x="400" y="350" as="sourcePoint" />
            <mxPoint x="450" y="300" as="targetPoint" />
          </mxGeometry>
        </mxCell>
        <mxCell id="jn_K5ucYfSR-Frp_HvuO-27" value="" style="endArrow=classic;html=1;rounded=0;" edge="1" parent="1" target="jn_K5ucYfSR-Frp_HvuO-16">
          <mxGeometry width="50" height="50" relative="1" as="geometry">
            <mxPoint x="120" y="342" as="sourcePoint" />
            <mxPoint x="238" y="370" as="targetPoint" />
          </mxGeometry>
        </mxCell>
        <mxCell id="jn_K5ucYfSR-Frp_HvuO-28" value="" style="rounded=0;whiteSpace=wrap;html=1;fillColor=none;" vertex="1" parent="1">
          <mxGeometry x="160" y="110" width="510" height="470" as="geometry" />
        </mxCell>
        <mxCell id="jn_K5ucYfSR-Frp_HvuO-29" style="edgeStyle=orthogonalEdgeStyle;rounded=0;orthogonalLoop=1;jettySize=auto;html=1;" edge="1" parent="1" source="jn_K5ucYfSR-Frp_HvuO-28" target="jn_K5ucYfSR-Frp_HvuO-28">
          <mxGeometry relative="1" as="geometry" />
        </mxCell>
        <mxCell id="jn_K5ucYfSR-Frp_HvuO-30" value="guichet automatique de banque" style="rounded=0;whiteSpace=wrap;html=1;" vertex="1" parent="1">
          <mxGeometry x="160" y="110" width="510" height="30" as="geometry" />
        </mxCell>
        <mxCell id="jn_K5ucYfSR-Frp_HvuO-31" value="" style="endArrow=classic;html=1;rounded=0;" edge="1" parent="1" source="jn_K5ucYfSR-Frp_HvuO-13" target="jn_K5ucYfSR-Frp_HvuO-6">
          <mxGeometry width="50" height="50" relative="1" as="geometry">
            <mxPoint x="400" y="350" as="sourcePoint" />
            <mxPoint x="450" y="300" as="targetPoint" />
          </mxGeometry>
        </mxCell>
      </root>
    </mxGraphModel>
  </diagram>
</mxfile>
